<svg width="19" height="19" viewBox="0 0 19 19" fill="none" xmlns="http://www.w3.org/2000/svg">
<path d="M1.58334 5.54167L8.04724 10.0664C8.57066 10.4328 8.83238 10.616 9.11705 10.687C9.36851 10.7496 9.63151 10.7496 9.88297 10.687C10.1676 10.616 10.4294 10.4328 10.9528 10.0664L17.4167 5.54167M5.38334 15.8333H13.6167C14.9468 15.8333 15.6119 15.8333 16.1199 15.5745C16.5668 15.3468 16.9301 14.9834 17.1578 14.5366C17.4167 14.0285 17.4167 13.3635 17.4167 12.0333V6.96667C17.4167 5.63654 17.4167 4.97148 17.1578 4.46344C16.9301 4.01656 16.5668 3.65323 16.1199 3.42553C15.6119 3.16667 14.9468 3.16667 13.6167 3.16667H5.38334C4.05322 3.16667 3.38816 3.16667 2.88012 3.42553C2.43323 3.65323 2.0699 4.01656 1.8422 4.46344C1.58334 4.97148 1.58334 5.63654 1.58334 6.96667V12.0333C1.58334 13.3635 1.58334 14.0285 1.8422 14.5366C2.0699 14.9834 2.43323 15.3468 2.88012 15.5745C3.38816 15.8333 4.05322 15.8333 5.38334 15.8333Z" stroke="#4B5563" stroke-width="1.5" stroke-linecap="round" stroke-linejoin="round"/>
</svg>
